<svg xmlns="http://www.w3.org/2000/svg" width="54" height="24" viewBox="0 0 54 24" fill="none">
  <rect width="54" height="24" rx="10" fill="#FFC89B" fill-opacity="0.08"/>
  <path d="M15 9C15 13 12 15.9999 8 16" stroke="#FFC89B" stroke-width="2" stroke-linecap="round"/>
  <circle cx="15" cy="9" r="2" fill="#FFC89B"/>
  <path d="M23.287 16C23.1917 16 23.1137 15.9697 23.053 15.909C22.9923 15.8483 22.962 15.7703 22.962 15.675V7.225C22.962 7.12967 22.9923 7.05167 23.053 6.991C23.1137 6.93033 23.1917 6.9 23.287 6.9H29.176C29.2713 6.9 29.3493 6.93033 29.41 6.991C29.4707 7.05167 29.501 7.12967 29.501 7.225V8.265C29.501 8.35167 29.4707 8.42533 29.41 8.486C29.3493 8.54667 29.2713 8.577 29.176 8.577H24.964V10.618H28.89C28.9853 10.618 29.0633 10.6483 29.124 10.709C29.1847 10.7697 29.215 10.8477 29.215 10.943V11.905C29.215 11.9917 29.1847 12.0653 29.124 12.126C29.0633 12.1867 28.9853 12.217 28.89 12.217H24.964V14.323H29.28C29.3753 14.323 29.4533 14.3533 29.514 14.414C29.5747 14.4747 29.605 14.5527 29.605 14.648V15.675C29.605 15.7703 29.5747 15.8483 29.514 15.909C29.4533 15.9697 29.3753 16 29.28 16H23.287ZM30.6565 16C30.5785 16 30.5135 15.974 30.4615 15.922C30.4095 15.8613 30.3835 15.7963 30.3835 15.727C30.3835 15.701 30.3878 15.675 30.3965 15.649C30.4051 15.623 30.4138 15.597 30.4225 15.571L33.2955 11.359L30.6175 7.329C30.5915 7.277 30.5785 7.225 30.5785 7.173C30.5785 7.10367 30.6045 7.043 30.6565 6.991C30.7085 6.93033 30.7735 6.9 30.8515 6.9H32.4505C32.5631 6.9 32.6498 6.93033 32.7105 6.991C32.7798 7.05167 32.8318 7.108 32.8665 7.16L34.6085 9.747L36.3635 7.16C36.3981 7.108 36.4501 7.05167 36.5195 6.991C36.5888 6.93033 36.6798 6.9 36.7925 6.9H38.3135C38.3828 6.9 38.4435 6.93033 38.4955 6.991C38.5561 7.043 38.5865 7.10367 38.5865 7.173C38.5865 7.23367 38.5691 7.28567 38.5345 7.329L35.8565 11.346L38.7425 15.571C38.7598 15.597 38.7685 15.623 38.7685 15.649C38.7771 15.675 38.7815 15.701 38.7815 15.727C38.7815 15.7963 38.7555 15.8613 38.7035 15.922C38.6515 15.974 38.5865 16 38.5085 16H36.8575C36.7448 16 36.6538 15.9697 36.5845 15.909C36.5238 15.8483 36.4761 15.7963 36.4415 15.753L34.5435 13.023L32.6585 15.753C32.6325 15.7963 32.5848 15.8483 32.5155 15.909C32.4548 15.9697 32.3638 16 32.2425 16H30.6565ZM40.2606 16C40.1653 16 40.0873 15.9697 40.0266 15.909C39.966 15.8483 39.9356 15.7703 39.9356 15.675V7.225C39.9356 7.12967 39.966 7.05167 40.0266 6.991C40.0873 6.93033 40.1653 6.9 40.2606 6.9H43.8096C44.5116 6.9 45.1183 7.00833 45.6296 7.225C46.1496 7.44167 46.5526 7.771 46.8386 8.213C47.1333 8.64633 47.2806 9.188 47.2806 9.838C47.2806 10.4967 47.1333 11.0427 46.8386 11.476C46.5526 11.9007 46.1496 12.217 45.6296 12.425C45.1183 12.633 44.5116 12.737 43.8096 12.737H42.0676V15.675C42.0676 15.7703 42.0373 15.8483 41.9766 15.909C41.916 15.9697 41.838 16 41.7426 16H40.2606ZM42.0286 11.125H43.7446C44.1866 11.125 44.529 11.0167 44.7716 10.8C45.023 10.5833 45.1486 10.2583 45.1486 9.825C45.1486 9.44367 45.036 9.13167 44.8106 8.889C44.594 8.64633 44.2386 8.525 43.7446 8.525H42.0286V11.125Z" fill="#FFC89B"/>
</svg>