<svg xmlns="http://www.w3.org/2000/svg" width="49" height="24" viewBox="0 0 49 24" fill="none">
  <rect width="49" height="24" rx="10" fill="#00DCDC" fill-opacity="0.08"/>
  <path d="M15 9L8 16" stroke="#00DCDC" stroke-width="2" stroke-linecap="round" stroke-linejoin="round"/>
  <circle cx="15" cy="9" r="2" fill="#00DCDC"/>
  <path d="M23.287 16C23.1917 16 23.1137 15.9697 23.053 15.909C22.9923 15.8483 22.962 15.7703 22.962 15.675V7.225C22.962 7.12967 22.9923 7.05167 23.053 6.991C23.1137 6.93033 23.1917 6.9 23.287 6.9H24.73C24.8253 6.9 24.9033 6.93033 24.964 6.991C25.0247 7.05167 25.055 7.12967 25.055 7.225V14.258H29.085C29.1803 14.258 29.2583 14.2883 29.319 14.349C29.3797 14.4097 29.41 14.4877 29.41 14.583V15.675C29.41 15.7703 29.3797 15.8483 29.319 15.909C29.2583 15.9697 29.1803 16 29.085 16H23.287ZM30.9296 16C30.8342 16 30.7562 15.9697 30.6956 15.909C30.6349 15.8483 30.6046 15.7703 30.6046 15.675V7.225C30.6046 7.12967 30.6349 7.05167 30.6956 6.991C30.7562 6.93033 30.8342 6.9 30.9296 6.9H32.3986C32.4939 6.9 32.5719 6.93033 32.6326 6.991C32.6932 7.05167 32.7236 7.12967 32.7236 7.225V15.675C32.7236 15.7703 32.6932 15.8483 32.6326 15.909C32.5719 15.9697 32.4939 16 32.3986 16H30.9296ZM34.9667 16C34.8714 16 34.7934 15.9697 34.7327 15.909C34.672 15.8483 34.6417 15.7703 34.6417 15.675V7.225C34.6417 7.12967 34.672 7.05167 34.7327 6.991C34.7934 6.93033 34.8714 6.9 34.9667 6.9H36.1497C36.2797 6.9 36.375 6.93033 36.4357 6.991C36.4964 7.05167 36.5354 7.09933 36.5527 7.134L40.0237 12.555V7.225C40.0237 7.12967 40.054 7.05167 40.1147 6.991C40.1754 6.93033 40.249 6.9 40.3357 6.9H41.6617C41.757 6.9 41.835 6.93033 41.8957 6.991C41.9564 7.05167 41.9867 7.12967 41.9867 7.225V15.675C41.9867 15.7617 41.9564 15.8397 41.8957 15.909C41.835 15.9697 41.757 16 41.6617 16H40.4657C40.3357 16 40.2404 15.9697 40.1797 15.909C40.1277 15.8397 40.0887 15.792 40.0627 15.766L36.6047 10.514V15.675C36.6047 15.7703 36.5744 15.8483 36.5137 15.909C36.453 15.9697 36.375 16 36.2797 16H34.9667Z" fill="#00DCDC"/>
</svg>