<svg xmlns="http://www.w3.org/2000/svg" width="54" height="24" viewBox="0 0 54 24" fill="none">
  <rect width="54" height="24" rx="10" fill="#FF9BFF" fill-opacity="0.08"/>
  <path d="M15 9C15 15 14 16 8 16" stroke="#FF9BFF" stroke-width="2" stroke-linecap="round"/>
  <circle cx="15" cy="9" r="2" fill="#FF9BFF"/>
  <path d="M22.468 16C22.39 16 22.325 15.974 22.273 15.922C22.221 15.8613 22.195 15.7963 22.195 15.727C22.195 15.701 22.1993 15.675 22.208 15.649C22.2167 15.623 22.2253 15.597 22.234 15.571L25.107 11.359L22.429 7.329C22.403 7.277 22.39 7.225 22.39 7.173C22.39 7.10367 22.416 7.043 22.468 6.991C22.52 6.93033 22.585 6.9 22.663 6.9H24.262C24.3747 6.9 24.4613 6.93033 24.522 6.991C24.5913 7.05167 24.6433 7.108 24.678 7.16L26.42 9.747L28.175 7.16C28.2097 7.108 28.2617 7.05167 28.331 6.991C28.4003 6.93033 28.4913 6.9 28.604 6.9H30.125C30.1943 6.9 30.255 6.93033 30.307 6.991C30.3677 7.043 30.398 7.10367 30.398 7.173C30.398 7.23367 30.3807 7.28567 30.346 7.329L27.668 11.346L30.554 15.571C30.5713 15.597 30.58 15.623 30.58 15.649C30.5887 15.675 30.593 15.701 30.593 15.727C30.593 15.7963 30.567 15.8613 30.515 15.922C30.463 15.974 30.398 16 30.32 16H28.669C28.5563 16 28.4653 15.9697 28.396 15.909C28.3353 15.8483 28.2877 15.7963 28.253 15.753L26.355 13.023L24.47 15.753C24.444 15.7963 24.3963 15.8483 24.327 15.909C24.2663 15.9697 24.1753 16 24.054 16H22.468ZM34.4382 16C34.3428 16 34.2648 15.9697 34.2042 15.909C34.1435 15.8483 34.1132 15.7703 34.1132 15.675V12.815L31.0712 7.316C31.0625 7.29 31.0538 7.26833 31.0452 7.251C31.0365 7.225 31.0322 7.199 31.0322 7.173C31.0322 7.10367 31.0582 7.043 31.1102 6.991C31.1708 6.93033 31.2358 6.9 31.3052 6.9H32.6832C32.8045 6.9 32.8998 6.93033 32.9692 6.991C33.0385 7.05167 33.0862 7.108 33.1122 7.16L35.1532 10.735L37.1942 7.16C37.2202 7.108 37.2678 7.05167 37.3372 6.991C37.4065 6.93033 37.5018 6.9 37.6232 6.9H39.0012C39.0705 6.9 39.1312 6.93033 39.1832 6.991C39.2438 7.043 39.2742 7.10367 39.2742 7.173C39.2742 7.199 39.2698 7.225 39.2612 7.251C39.2525 7.26833 39.2438 7.29 39.2352 7.316L36.1932 12.815V15.675C36.1932 15.7703 36.1628 15.8483 36.1022 15.909C36.0415 15.9697 35.9635 16 35.8682 16H34.4382ZM40.8065 16C40.7112 16 40.6332 15.9697 40.5725 15.909C40.5119 15.8483 40.4815 15.7703 40.4815 15.675V7.225C40.4815 7.12967 40.5119 7.05167 40.5725 6.991C40.6332 6.93033 40.7112 6.9 40.8065 6.9H42.1845C42.2799 6.9 42.3579 6.93033 42.4185 6.991C42.4792 7.05167 42.5095 7.12967 42.5095 7.225V10.189L45.1875 7.147C45.2222 7.095 45.2785 7.043 45.3565 6.991C45.4432 6.93033 45.5559 6.9 45.6945 6.9H47.2675C47.3455 6.9 47.4105 6.93033 47.4625 6.991C47.5145 7.043 47.5405 7.10367 47.5405 7.173C47.5405 7.23367 47.5232 7.28567 47.4885 7.329L44.1475 11.255L47.7355 15.571C47.7702 15.6057 47.7875 15.6577 47.7875 15.727C47.7875 15.7963 47.7615 15.8613 47.7095 15.922C47.6575 15.974 47.5925 16 47.5145 16H45.8895C45.7335 16 45.6165 15.9653 45.5385 15.896C45.4605 15.8267 45.4085 15.779 45.3825 15.753L42.5095 12.425V15.675C42.5095 15.7703 42.4792 15.8483 42.4185 15.909C42.3579 15.9697 42.2799 16 42.1845 16H40.8065Z" fill="#FF9BFF"/>
</svg>