<?xml version="1.0" encoding="UTF-8"?>
<svg width="1200pt" height="1200pt" version="1.1" viewBox="0 0 1200 1200" xmlns="http://www.w3.org/2000/svg">
 <g fill="#fff">
  <path d="m918.75 56.25c-144.98 0-262.5 117.52-262.5 262.5s117.52 262.5 262.5 262.5 262.5-117.52 262.5-262.5-117.52-262.5-262.5-262.5zm112.5 318.75-112.5 75-112.5-75v-112.5l112.5-75 112.5 75z"/>
  <path d="m281.25 581.25c144.98 0 262.5-117.52 262.5-262.5s-117.52-262.5-262.5-262.5-262.5 117.52-262.5 262.5 117.52 262.5 262.5 262.5zm0-412.5 150 150-150 150-150-150z"/>
  <path d="m337.5 881.25c0 144.98 117.52 262.5 262.5 262.5s262.5-117.52 262.5-262.5-117.52-262.5-262.5-262.5-262.5 117.52-262.5 262.5zm262.5-150 131.25 225h-262.5z"/>
 </g>
</svg>
