<?xml version="1.0" encoding="UTF-8"?>
<svg width="1200pt" height="1200pt" version="1.1" viewBox="0 0 1200 1200" xmlns="http://www.w3.org/2000/svg">
 <defs>
  <clipPath id="a">
   <path d="m222.14 269h755.71v365h-755.71z"/>
  </clipPath>
 </defs>
 <g clip-path="url(#a)">
  <path d="m976.89 566.99c-1.8867-15.68-9.7617-29.691-22.184-39.445l-308.6-242.41c-27.312-21.457-65.469-21.457-92.789 0l-308.6 242.41c-25.641 20.137-30.117 57.383-9.9766 83.023 20.145 25.641 57.387 30.113 83.027 9.9727l254.68-200.05c16.051-12.609 38.469-12.609 54.52 0l254.68 200.05c10.809 8.4922 23.68 12.609 36.465 12.609 17.535 0 34.91-7.75 46.559-22.582 9.7578-12.418 14.094-27.895 12.211-43.578" fill="#fff" fill-rule="evenodd"/>
 </g>
 <path d="m860.2 639.96-231.66-180.65c-16.969-13.234-40.664-13.234-57.637 0l-231.66 180.65c-3.7617 2.9336-5.9648 7.4375-5.9648 12.211v206.16c0 36.984 30.09 67.074 67.074 67.074h398.74c36.98 0 67.07-30.09 67.07-67.074v-206.16c0-4.7734-2.1992-9.2773-5.9609-12.211" fill="#fff" fill-rule="evenodd"/>
</svg>
