<?xml version="1.0" encoding="UTF-8"?>
<svg width="1200pt" height="1200pt" version="1.1" viewBox="0 0 1200 1200" xmlns="http://www.w3.org/2000/svg">
 <g fill="#fff">
  <path d="m224 960h712c56 0 100-44 100-100v-104h-16-148c-84 0-152-68-152-152s68-156 152-156h148 16v-104c0-56-44-100-100-100h-712c-60-4-104 44-104 100v516c0 52 44 100 104 100z"/>
  <path d="m872 484c-64 0-112 52-112 116s52 112 112 112h148c32 0 60-28 60-60v-108c0-32-28-60-60-60zm12 168c-28 0-52-24-52-52s24-52 52-52 52 24 52 52-24 52-52 52z"/>
 </g>
</svg>
