<?xml version="1.0" encoding="UTF-8"?>
<!DOCTYPE svg PUBLIC "-//W3C//DTD SVG 1.1//EN" "http://www.w3.org/Graphics/SVG/1.1/DTD/svg11.dtd">
<svg xmlns="http://www.w3.org/2000/svg" version="1.1" width="142px" height="188px" style="shape-rendering:geometricPrecision; text-rendering:geometricPrecision; image-rendering:optimizeQuality; fill-rule:evenodd; clip-rule:evenodd" xmlns:xlink="http://www.w3.org/1999/xlink">
<g><path style="opacity:0.881" fill="#00e1ca" d="M 67.5,-0.5 C 75.8333,-0.5 84.1667,-0.5 92.5,-0.5C 109.925,3.13024 125.092,11.1302 138,23.5C 138.667,24.1667 138.667,24.8333 138,25.5C 131.5,32 125,38.5 118.5,45C 131.78,59.7214 139.447,76.8881 141.5,96.5C 141.5,100.833 141.5,105.167 141.5,109.5C 135.495,153.837 110.495,179.837 66.5,187.5C 62.1667,187.5 57.8333,187.5 53.5,187.5C 33.2575,185.025 15.9242,176.525 1.5,162C 7.80163,154.697 14.4683,147.697 21.5,141C 10.0025,128.172 2.66916,113.339 -0.5,96.5C -0.5,87.8333 -0.5,79.1667 -0.5,70.5C 7.19036,32.4765 29.857,8.80988 67.5,-0.5 Z M 72.5,29.5 C 86.3633,28.0376 99.03,31.2043 110.5,39C 112.684,41.0165 114.684,43.1831 116.5,45.5C 109.97,52.1948 103.637,59.0282 97.5,66C 113.986,87.2061 115.819,109.706 103,133.5C 82.2162,159.061 57.7162,163.561 29.5,147C 27.5,145 25.5,143 23.5,141C 30.1667,134.333 36.8333,127.667 43.5,121C 23.747,95.96 23.5803,70.7934 43,45.5C 51.4032,37.3842 61.2365,32.0509 72.5,29.5 Z"/></g>
</svg>
